<svg width="51" height="51" viewBox="0 0 51 51" fill="none" xmlns="http://www.w3.org/2000/svg">
<path fill-rule="evenodd" clip-rule="evenodd" d="M15.45 0.781845H35.45C43.7343 0.781845 50.45 7.49757 50.45 15.7818V35.7818C50.45 44.0661 43.7343 50.7818 35.45 50.7818H15.45C7.16574 50.7818 0.450012 44.0661 0.450012 35.7818V15.7818C0.450012 7.49757 7.16574 0.781845 15.45 0.781845ZM15.45 5.78185C9.92716 5.78185 5.45001 10.259 5.45001 15.7818V35.7818C5.45001 41.3047 9.92716 45.7818 15.45 45.7818H35.45C40.9729 45.7818 45.45 41.3047 45.45 35.7818V15.7818C45.45 10.259 40.9729 5.78185 35.45 5.78185H15.45ZM25.45 38.2818C18.5465 38.2818 12.95 32.6854 12.95 25.7818C12.95 18.8783 18.5465 13.2818 25.45 13.2818C32.3536 13.2818 37.95 18.8783 37.95 25.7818C37.95 32.6854 32.3536 38.2818 25.45 38.2818ZM25.45 33.2818C29.5921 33.2818 32.95 29.924 32.95 25.7818C32.95 21.6397 29.5921 18.2818 25.45 18.2818C21.3079 18.2818 17.95 21.6397 17.95 25.7818C17.95 29.924 21.3079 33.2818 25.45 33.2818ZM37.95 15.7818C36.5693 15.7818 35.45 14.6626 35.45 13.2818C35.45 11.9011 36.5693 10.7818 37.95 10.7818C39.3307 10.7818 40.45 11.9011 40.45 13.2818C40.45 14.6626 39.3307 15.7818 37.95 15.7818Z" fill="#2CDA9D"/>
</svg>
