<svg width="51" height="56" viewBox="0 0 51 56" fill="none" xmlns="http://www.w3.org/2000/svg">
<path fill-rule="evenodd" clip-rule="evenodd" d="M19.9423 50.0101C19.9567 50.3513 19.9199 50.6843 19.848 51.0214C19.7218 51.6136 19.4779 52.2403 19.1328 52.8193C18.1516 54.4653 16.4848 55.5637 14.3388 55.5637C9.28356 55.5637 7.29949 53.0836 4.81529 46.8731C3.13283 42.667 2.33911 41.6748 0.449951 41.6748V36.1193C5.50523 36.1193 7.4893 38.5993 9.9735 44.8098C11.656 49.016 12.4497 50.0081 14.3388 50.0081C14.3388 49.2021 14.3278 48.4882 14.3046 47.5213C14.2501 45.2552 14.2439 44.7926 14.3427 44.1868C14.3822 42.8643 14.7237 41.9259 15.4083 40.9946C9.20882 39.6451 5.02751 36.8579 2.62766 32.3373L1.72866 30.2231C0.852855 27.7061 0.449951 24.8543 0.449951 21.5606C0.449951 17.7674 1.60647 14.3758 3.76667 11.5407C3.0928 8.8459 3.18509 5.55339 4.67303 1.83501L5.15923 0.619989L6.4057 0.221277C6.57258 0.167895 6.77546 0.119681 7.01381 0.0822721C9.44096 -0.298672 12.8947 0.61022 17.4098 3.50234C20.0715 2.88533 22.8745 2.57382 25.6965 2.57382C28.2184 2.57382 30.7262 2.82805 33.1211 3.32928C37.514 0.57835 40.8728 -0.284449 43.2347 0.0827602C43.4703 0.119391 43.6711 0.166682 43.8366 0.219167L45.0908 0.616903L45.5776 1.83933C46.8793 5.10805 47.1027 8.12045 46.629 10.7564C49.1124 13.7361 50.4499 17.3994 50.4499 21.5606C50.4499 25.0688 50.1986 27.7067 49.4761 30.2731L48.7136 32.3657C46.7174 36.8816 42.3151 39.7 35.5264 41.0424C36.232 42.0194 36.5611 43.0112 36.5611 44.4526V47.2304C36.5611 48.5765 36.5611 48.6179 36.558 50.0082C36.5643 50.108 36.5726 50.1569 36.5817 50.1873C36.5802 50.1878 36.5734 51.98 36.5611 55.5637C34.195 55.5637 32.4357 54.4098 31.5704 52.5896C31.1218 51.6459 30.9878 50.7448 31.0055 49.9687V44.4526C31.0055 44.2197 30.9974 44.2062 30.4302 43.639C28.9141 42.1229 28.2277 40.9789 28.2277 38.897V36.3842L30.7279 36.1332C38.1703 35.3857 42.2181 33.3189 43.5602 30.2996L44.1873 28.585C44.6864 26.7923 44.8944 24.609 44.8944 21.5606C44.8944 18.3215 43.7636 15.6457 41.6249 13.5079L40.4494 12.3329L40.9292 10.7415C41.3554 9.32782 41.4567 7.65497 41.0058 5.74693C40.9309 5.76592 40.853 5.78661 40.7721 5.80912C39.2848 6.2232 37.4278 7.11171 35.1901 8.60748L34.1694 9.2897L32.9779 8.99423C30.6732 8.42277 28.1968 8.12937 25.6965 8.12937C22.9162 8.12937 20.1679 8.48312 17.629 9.17527L16.39 9.51306L15.33 8.78794C13.0156 7.20465 11.0929 6.26308 9.55113 5.82324C9.44102 5.79182 9.33617 5.76372 9.23652 5.73867C8.69862 7.94696 8.91137 9.76127 9.45615 11.1227L10.1093 12.755L8.91352 14.0439C7.008 16.0978 6.00551 18.5971 6.00551 21.5606C6.00551 24.2739 6.32313 26.5221 6.90518 28.2156L7.63208 29.9363C9.44923 33.3461 13.3089 35.3974 20.1904 36.1351L22.6722 36.4011V38.897C22.6722 40.9789 21.9858 42.1229 20.4697 43.639C19.9025 44.2062 19.8944 44.2197 19.8944 44.4526L19.8465 44.9661C19.8148 45.1345 19.8148 45.5694 19.8585 47.3878C19.8786 48.2242 19.8901 48.8861 19.8934 49.5779C19.9266 49.7211 19.9316 49.8135 19.9423 50.0101Z" fill="#2CDA9D"/>
</svg>
