<svg width="51" height="51" viewBox="0 0 51 51" fill="none" xmlns="http://www.w3.org/2000/svg">
<path fill-rule="evenodd" clip-rule="evenodd" d="M5.45001 0.781845H45.45C48.2114 0.781845 50.45 3.02042 50.45 5.78185V45.7818C50.45 48.5433 48.2114 50.7818 45.45 50.7818H5.45001C2.68859 50.7818 0.450012 48.5433 0.450012 45.7818V5.78185C0.450012 3.02042 2.68859 0.781845 5.45001 0.781845ZM5.45001 5.78185V45.7818H45.45V5.78185H5.45001ZM24.0804 19.4122C25.2881 18.6775 26.6557 18.2818 27.95 18.2818H30.45C33.9349 18.2818 37.95 21.1498 37.95 25.7818V35.7818H32.95V25.7818C32.95 24.3425 31.4651 23.2818 30.45 23.2818H27.95C26.9349 23.2818 25.45 24.3425 25.45 25.7818V35.7818H20.45V18.2818H22.95L24.0804 19.4122ZM15.45 15.7818C14.0693 15.7818 12.95 14.6626 12.95 13.2818C12.95 11.9011 14.0693 10.7818 15.45 10.7818C16.8307 10.7818 17.95 11.9011 17.95 13.2818C17.95 14.6626 16.8307 15.7818 15.45 15.7818ZM17.95 35.7818H12.95V18.2818H17.95V35.7818Z" fill="#2CDA9D"/>
</svg>
